<svg width="55" height="54" viewBox="0 0 55 54" fill="none" xmlns="http://www.w3.org/2000/svg">
<path d="M40.995 40.2019C48.396 32.8009 48.396 20.8016 40.995 13.4006C33.594 5.99962 21.5946 5.9996 14.1936 13.4006C6.79266 20.8016 6.79267 32.801 14.1937 40.202C21.5947 47.603 33.594 47.6029 40.995 40.2019Z" fill="#7637DE"/>
<path d="M29.7638 40.8182V28.0271H34.055L34.6987 23.0468H29.7473V19.8655C29.7473 18.4214 30.1599 17.4394 32.223 17.4394H34.8638V13.0079C33.5865 12.871 32.3027 12.8049 31.0182 12.8098C27.2139 12.8098 24.6103 15.1329 24.6103 19.4117V23.0881H20.3149V28.0683H24.6185V40.8594L29.7638 40.8182Z" fill="white"/>
</svg>
