<svg width="54" height="54" viewBox="0 0 54 54" fill="none" xmlns="http://www.w3.org/2000/svg">
<path d="M40.5161 40.2046C47.9171 32.8036 47.9171 20.8043 40.5161 13.4033C33.1151 6.0023 21.1158 6.00229 13.7148 13.4033C6.31377 20.8043 6.31379 32.8037 13.7148 40.2046C21.1158 47.6056 33.1151 47.6056 40.5161 40.2046Z" fill="url(#paint0_linear_112_9)"/>
<path d="M27.4471 16.6222C30.5046 16.6222 30.8677 16.6222 32.0767 16.6882C32.8033 16.7041 33.5219 16.8437 34.2017 17.1008C34.6997 17.2835 35.1498 17.577 35.5179 17.959C35.8982 18.3286 36.1914 18.7782 36.3761 19.2752C36.6287 19.9556 36.7613 20.6746 36.7681 21.4002C36.8259 22.6092 36.8341 22.9682 36.8341 26.0257C36.8341 29.0832 36.8341 29.4462 36.7681 30.6552C36.7603 31.3808 36.6277 32.0996 36.3761 32.7802C36.1914 33.2772 35.8982 33.7269 35.5179 34.0964C35.1476 34.4758 34.6982 34.7688 34.2017 34.9546C33.5211 35.2062 32.8022 35.3388 32.0767 35.3466C30.8677 35.4044 30.5046 35.4168 27.4471 35.4168C24.3897 35.4168 24.0266 35.4168 22.8217 35.3466C22.0948 35.3391 21.3746 35.2065 20.6926 34.9546C20.1966 34.7678 19.7474 34.4749 19.3764 34.0964C18.996 33.7277 18.704 33.2777 18.5223 32.7802C18.2651 32.1004 18.1256 31.3818 18.1097 30.6552C18.056 29.4462 18.0436 29.0832 18.0436 26.0257C18.0436 22.9682 18.0436 22.6092 18.1097 21.4002C18.1246 20.6735 18.2642 19.9548 18.5223 19.2752C18.704 18.7777 18.996 18.3277 19.3764 17.959C19.7452 17.5779 20.1951 17.2845 20.6926 17.1008C21.3738 16.8434 22.0938 16.7038 22.8217 16.6882C24.0266 16.6346 24.3897 16.6222 27.4471 16.6222ZM27.4471 14.5591C24.336 14.5591 23.9482 14.5591 22.7268 14.6292C21.7763 14.6469 20.8357 14.8269 19.9458 15.1615C19.1829 15.4497 18.4916 15.9003 17.9199 16.4819C17.3369 17.0525 16.8862 17.7441 16.5995 18.5078C16.2649 19.3977 16.0849 20.3382 16.0672 21.2888C16.0095 22.5267 15.9971 22.9022 15.9971 26.0092C15.9971 29.1161 15.9971 29.5122 16.0672 30.7336C16.0844 31.6829 16.2644 32.6221 16.5995 33.5105C16.885 34.276 17.3359 34.9691 17.9199 35.5406C18.4916 36.1222 19.1829 36.5727 19.9458 36.861C20.8363 37.1936 21.7765 37.3735 22.7268 37.3932C23.9647 37.4468 24.336 37.4634 27.4471 37.4634C30.5583 37.4634 30.9461 37.4633 32.1675 37.3932C33.1179 37.3739 34.0581 37.194 34.9485 36.861C35.7127 36.5729 36.4054 36.1224 36.9786 35.5406C37.5612 34.968 38.0118 34.2752 38.2989 33.5105C38.6301 32.621 38.81 31.6824 38.8312 30.7336C38.8848 29.4957 38.9013 29.1203 38.9013 26.0092C38.9013 22.898 38.9013 22.5102 38.8312 21.2888C38.8095 20.3387 38.6296 19.3988 38.2989 18.5078C38.0107 17.7448 37.5602 17.0536 36.9786 16.4819C36.4054 15.9001 35.7127 15.4496 34.9485 15.1615C34.0587 14.8264 33.1181 14.6464 32.1675 14.6292C30.9296 14.5715 30.5583 14.5591 27.4471 14.5591ZM27.4471 20.1294C25.8877 20.1294 24.3922 20.7489 23.2895 21.8515C22.1869 22.9542 21.5674 24.4497 21.5674 26.0092C21.5674 27.5686 22.1869 29.0641 23.2895 30.1668C24.3922 31.2695 25.8877 31.8889 27.4471 31.8889C29.0066 31.8889 30.5021 31.2695 31.6048 30.1668C32.7074 29.0641 33.3269 27.5686 33.3269 26.0092C33.3269 24.4497 32.7074 22.9542 31.6048 21.8515C30.5021 20.7489 29.0066 20.1294 27.4471 20.1294ZM27.4471 29.8258C26.4349 29.8258 25.4641 29.4237 24.7483 28.708C24.0326 27.9922 23.6305 27.0214 23.6305 26.0092C23.6305 24.9969 24.0326 24.0261 24.7483 23.3103C25.4641 22.5946 26.4349 22.1925 27.4471 22.1925C28.4594 22.1925 29.4302 22.5946 30.146 23.3103C30.8617 24.0261 31.2638 24.9969 31.2638 26.0092C31.2638 27.0214 30.8617 27.9922 30.146 28.708C29.4302 29.4237 28.4594 29.8258 27.4471 29.8258ZM34.9361 19.8983C34.9361 19.5339 34.7913 19.1844 34.5337 18.9267C34.276 18.6691 33.9265 18.5243 33.5621 18.5243C33.1977 18.5243 32.8482 18.6691 32.5905 18.9267C32.3329 19.1844 32.1881 19.5339 32.1881 19.8983C32.1881 20.2627 32.3329 20.6122 32.5905 20.8699C32.8482 21.1276 33.1977 21.2723 33.5621 21.2723C33.9265 21.2723 34.276 21.1276 34.5337 20.8699C34.7913 20.6122 34.9361 20.2627 34.9361 19.8983Z" fill="white"/>
<defs>
<linearGradient id="paint0_linear_112_9" x1="10.7047" y1="17.3267" x2="43.5323" y2="36.2822" gradientUnits="userSpaceOnUse">
<stop offset="0.25" stop-color="#7637DE"/>
</linearGradient>
</defs>
</svg>
