<svg width="24" height="24" viewBox="0 0 24 24" fill="none" xmlns="http://www.w3.org/2000/svg">
<path d="M12.4472 2.62216C15.5047 2.62216 15.8678 2.62217 17.0767 2.68819C17.8033 2.70415 18.5219 2.84368 19.2017 3.10081C19.6998 3.28352 20.1498 3.57697 20.5179 3.95903C20.8982 4.32857 21.1914 4.77819 21.3762 5.27525C21.6287 5.95558 21.7613 6.67457 21.7682 7.40023C21.8259 8.60919 21.8342 8.9682 21.8342 12.0257C21.8342 15.0832 21.8342 15.4462 21.7682 16.6552C21.7603 17.3808 21.6278 18.0996 21.3762 18.7802C21.1914 19.2772 20.8982 19.7269 20.5179 20.0964C20.1476 20.4758 19.6982 20.7688 19.2017 20.9546C18.5211 21.2062 17.8023 21.3388 17.0767 21.3466C15.8678 21.4044 15.5047 21.4168 12.4472 21.4168C9.3897 21.4168 9.02661 21.4168 7.82177 21.3466C7.09483 21.3391 6.37462 21.2065 5.69267 20.9546C5.19666 20.7678 4.74744 20.4749 4.37643 20.0964C3.99608 19.7277 3.70409 19.2777 3.52231 18.7802C3.26519 18.1004 3.12565 17.3818 3.1097 16.6552C3.05606 15.4462 3.04368 15.0832 3.04368 12.0257C3.04368 8.9682 3.04368 8.60919 3.1097 7.40023C3.12469 6.67352 3.26425 5.95476 3.52231 5.27525C3.70409 4.77769 3.99608 4.32773 4.37643 3.95903C4.74526 3.57785 5.19511 3.28455 5.69267 3.10081C6.37379 2.84338 7.09379 2.70384 7.82177 2.68819C9.02661 2.63455 9.3897 2.62216 12.4472 2.62216ZM12.4472 0.559082C9.33606 0.559082 8.9482 0.5591 7.72686 0.629245C6.7763 0.646918 5.83575 0.826901 4.94584 1.16148C4.18289 1.44973 3.49165 1.90027 2.9199 2.48188C2.33694 3.05253 1.88622 3.74406 1.59952 4.50779C1.26494 5.3977 1.08493 6.33825 1.06726 7.28881C1.00949 8.52666 0.997108 8.90216 0.997108 12.0092C0.997108 15.1161 0.997114 15.5122 1.06726 16.7336C1.08443 17.6829 1.26446 18.6221 1.59952 19.5105C1.88508 20.276 2.33591 20.9691 2.9199 21.5406C3.49165 22.1222 4.18289 22.5727 4.94584 22.861C5.83629 23.1936 6.77651 23.3735 7.72686 23.3932C8.96471 23.4468 9.33606 23.4634 12.4472 23.4634C15.5583 23.4634 15.9462 23.4633 17.1675 23.3932C18.1179 23.3739 19.0582 23.194 19.9485 22.861C20.7128 22.5729 21.4054 22.1224 21.9786 21.5406C22.5612 20.968 23.0118 20.2752 23.299 19.5105C23.6301 18.621 23.81 17.6824 23.8312 16.7336C23.8849 15.4957 23.9014 15.1203 23.9014 12.0092C23.9014 8.89804 23.9014 8.51015 23.8312 7.28881C23.8095 6.33867 23.6297 5.39879 23.299 4.50779C23.0107 3.74484 22.5602 3.05363 21.9786 2.48188C21.4054 1.90007 20.7128 1.44956 19.9485 1.16148C19.0587 0.82643 18.1181 0.646432 17.1675 0.629245C15.9297 0.571479 15.5583 0.559082 12.4472 0.559082ZM12.4472 6.12939C10.8878 6.12939 9.39223 6.74885 8.28956 7.85152C7.18689 8.95419 6.56741 10.4497 6.56741 12.0092C6.56741 13.5686 7.18689 15.0641 8.28956 16.1668C9.39223 17.2695 10.8878 17.8889 12.4472 17.8889C14.0066 17.8889 15.5021 17.2695 16.6048 16.1668C17.7075 15.0641 18.327 13.5686 18.327 12.0092C18.327 10.4497 17.7075 8.95419 16.6048 7.85152C15.5021 6.74885 14.0066 6.12939 12.4472 6.12939ZM12.4472 15.8258C11.4349 15.8258 10.4641 15.4237 9.74837 14.708C9.0326 13.9922 8.63049 13.0214 8.63049 12.0092C8.63049 10.9969 9.0326 10.0261 9.74837 9.31033C10.4641 8.59457 11.4349 8.19246 12.4472 8.19246C13.4594 8.19246 14.4302 8.59457 15.146 9.31033C15.8618 10.0261 16.2639 10.9969 16.2639 12.0092C16.2639 13.0214 15.8618 13.9922 15.146 14.708C14.4302 15.4237 13.4594 15.8258 12.4472 15.8258ZM19.9361 5.8983C19.9361 5.53389 19.7914 5.18443 19.5337 4.92675C19.276 4.66907 18.9266 4.52431 18.5621 4.52431C18.1977 4.52431 17.8482 4.66907 17.5906 4.92675C17.3329 5.18443 17.1881 5.53389 17.1881 5.8983C17.1881 6.26271 17.3329 6.61222 17.5906 6.8699C17.8482 7.12758 18.1977 7.27234 18.5621 7.27234C18.9266 7.27234 19.276 7.12758 19.5337 6.8699C19.7914 6.61222 19.9361 6.26271 19.9361 5.8983Z" fill="white"/>
</svg>
