<svg width="45" height="46" viewBox="0 0 45 46" fill="none" xmlns="http://www.w3.org/2000/svg">
<path d="M40.8664 26.5129C42.8958 16.2449 36.2171 6.27597 25.9492 4.24659C15.6812 2.2172 5.71221 8.89588 3.68283 19.1638C1.65344 29.4318 8.33214 39.4008 18.6001 41.4301C28.8681 43.4595 38.837 36.7808 40.8664 26.5129Z" fill="#7637DE"/>
<path d="M11.9607 17.5133H16.5779V32.3674H11.9607V17.5133ZM14.2673 10.1357C14.9757 10.1357 15.6551 10.4169 16.1564 10.9174C16.6577 11.4179 16.9399 12.0969 16.941 12.8054C16.9416 13.1568 16.8728 13.5049 16.7387 13.8298C16.6045 14.1547 16.4077 14.4499 16.1593 14.6986C15.911 14.9474 15.6161 15.1447 15.2914 15.2793C14.9668 15.4139 14.6187 15.4832 14.2673 15.4832C13.9156 15.4838 13.5674 15.4148 13.2425 15.2804C12.9176 15.146 12.6224 14.9487 12.374 14.6998C12.1255 14.451 11.9287 14.1556 11.7947 13.8304C11.6608 13.5053 11.5924 13.157 11.5935 12.8054C11.5935 12.4544 11.6627 12.1069 11.7971 11.7828C11.9315 11.4586 12.1285 11.1641 12.3769 10.9162C12.6252 10.6682 12.92 10.4717 13.2444 10.3378C13.5687 10.2039 13.9163 10.1352 14.2673 10.1357ZM19.4703 32.3509H24.0958V25.0105C24.0958 23.0753 24.463 21.1979 26.8644 21.1979C29.2658 21.1979 29.2617 23.4137 29.2617 25.1343V32.3509H33.8665V24.21C33.8665 20.2159 33.0041 17.1419 28.3374 17.1419C27.4615 17.1087 26.5929 17.3142 25.8247 17.7364C25.0565 18.1587 24.4175 18.7818 23.9761 19.5392H23.9101V17.5133H19.4703V32.3509Z" fill="white"/>
</svg>
