<svg width="23" height="23" viewBox="0 0 23 23" fill="none" xmlns="http://www.w3.org/2000/svg">
<path d="M0.960694 7.51326H5.57786V22.3674H0.960694V7.51326ZM3.26721 0.135745C3.97562 0.135745 4.65507 0.416875 5.15638 0.917407C5.65769 1.41794 5.93987 2.09695 5.94096 2.80535C5.9415 3.15682 5.87275 3.50492 5.73862 3.82979C5.6045 4.15466 5.40763 4.44992 5.1593 4.69864C4.91097 4.94736 4.61603 5.14466 4.29137 5.27928C3.96671 5.41391 3.61868 5.48322 3.26721 5.48322C2.91559 5.48377 2.56733 5.41482 2.24242 5.28039C1.91751 5.14596 1.62236 4.94867 1.37391 4.69985C1.12547 4.45102 0.928626 4.15556 0.794693 3.83044C0.660761 3.50533 0.592385 3.15697 0.593473 2.80535C0.593472 2.45443 0.662654 2.10694 0.797073 1.78278C0.931492 1.45862 1.1285 1.16415 1.37683 0.916199C1.62517 0.668247 1.91995 0.47169 2.24432 0.337772C2.56869 0.203854 2.91629 0.135203 3.26721 0.135745ZM8.4703 22.3509H13.0957V15.0105C13.0957 13.0753 13.4629 11.1979 15.8644 11.1979C18.2658 11.1979 18.2616 13.4137 18.2616 15.1343V22.3509H22.8664V14.21C22.8664 10.2159 22.0041 7.14194 17.3374 7.14194C16.4614 7.10871 15.5929 7.31418 14.8247 7.73644C14.0564 8.1587 13.4175 8.78185 12.976 9.53921H12.91V7.51326H8.4703V22.3509Z" fill="white"/>
</svg>
