<svg width="24" height="25" viewBox="0 0 24 25" fill="none" xmlns="http://www.w3.org/2000/svg">
<path fill-rule="evenodd" clip-rule="evenodd" d="M20.3482 3.73646C19.2527 2.63281 17.9488 1.75774 16.5124 1.16205C15.0759 0.566359 13.5354 0.261945 11.9804 0.266406C8.84391 0.270769 5.8371 1.51838 3.61889 3.73581C1.40069 5.95324 0.152028 8.95959 0.146571 12.0961C0.144769 14.1716 0.689836 16.211 1.72689 18.0089L0.0640488 24.1403L6.3358 22.4899C8.0711 23.436 10.0163 23.9312 11.9928 23.9299C15.1292 23.9255 18.136 22.6779 20.3542 20.4605C22.5724 18.243 23.8211 15.2366 23.8266 12.1002C23.8309 10.5455 23.5268 9.00542 22.9318 7.56907C22.3369 6.13272 21.4629 4.82863 20.3606 3.73233L20.3482 3.73646ZM11.9928 21.9328C10.2317 21.9336 8.50291 21.4604 6.98773 20.5629L6.62876 20.3484L2.91522 21.3263L3.90962 17.6953L3.67856 17.3239C2.69244 15.7572 2.17027 13.9432 2.17251 12.0919C2.17688 9.48406 3.21535 6.98439 5.06016 5.14113C6.90497 3.29786 9.40553 2.2615 12.0134 2.25932C13.3057 2.25728 14.5855 2.51146 15.7789 3.00724C16.9723 3.50301 18.0555 4.23052 18.966 5.14763C19.8845 6.05785 20.6129 7.14163 21.1087 8.33593C21.6046 9.53022 21.858 10.8112 21.8543 12.1043C21.851 14.7111 20.814 17.2101 18.9707 19.0534C17.1275 20.8967 14.6284 21.9336 12.0216 21.9369L11.9928 21.9328ZM17.3939 14.5717C17.691 14.7203 17.889 14.7946 17.9633 14.9184C18.0446 15.3929 17.9843 15.8808 17.79 16.3212C17.5424 17.0144 16.3624 17.6457 15.7929 17.7283C15.172 17.8331 14.5353 17.7936 13.932 17.6127C13.3588 17.4352 12.7955 17.2273 12.2445 16.9897C9.27775 15.7106 7.34258 12.7232 7.19404 12.5252C7.0455 12.3271 5.9892 10.9242 5.9892 9.4677C5.97832 9.00583 6.06452 8.54681 6.24221 8.12035C6.4199 7.69389 6.68513 7.3095 7.02074 6.992C7.11948 6.87921 7.24044 6.788 7.37605 6.7241C7.51166 6.6602 7.65899 6.62498 7.80884 6.62064C8.00689 6.62064 8.22145 6.62064 8.37824 6.62064C8.53504 6.62064 8.79086 6.55054 9.04255 7.1282C9.29425 7.70586 9.86779 9.19125 9.95444 9.32329C10.0016 9.401 10.0286 9.48926 10.0329 9.58007C10.0373 9.67088 10.0188 9.76135 9.97919 9.84319C9.90352 10.0199 9.80353 10.1851 9.68211 10.3342C9.53357 10.5075 9.37265 10.722 9.24061 10.8541C9.10858 10.9861 8.93528 11.1594 9.10857 11.4565C9.55348 12.2222 10.1097 12.9175 10.759 13.5196C11.461 14.1421 12.265 14.639 13.1357 14.9885C13.4328 15.137 13.6061 15.1123 13.7753 14.9142C13.9444 14.7162 14.518 14.0519 14.7119 13.7548C14.9058 13.4577 15.1245 13.5072 15.3803 13.6062C15.6361 13.7053 17.1051 14.4315 17.398 14.5676" fill="#7637DE"/>
</svg>
