<svg width="54" height="54" viewBox="0 0 54 54" fill="none" xmlns="http://www.w3.org/2000/svg">
<path d="M40.202 40.2046C47.603 32.8036 47.603 20.8043 40.202 13.4033C32.8011 6.0023 20.8017 6.00229 13.4007 13.4033C5.99969 20.8043 5.9997 32.8037 13.4007 40.2046C20.8017 47.6056 32.801 47.6056 40.202 40.2046Z" fill="#B0DD34"/>
<path fill-rule="evenodd" clip-rule="evenodd" d="M35.3483 17.7365C34.2527 16.6328 32.9489 15.7577 31.5124 15.1621C30.076 14.5664 28.5355 14.2619 26.9804 14.2664C23.844 14.2708 20.8371 15.5184 18.6189 17.7358C16.4007 19.9532 15.1521 22.9596 15.1466 26.0961C15.1448 28.1716 15.6899 30.211 16.7269 32.0089L15.0641 38.1403L21.3358 36.4899C23.0711 37.436 25.0163 37.9312 26.9928 37.9299C30.1293 37.9255 33.1361 36.6779 35.3543 34.4605C37.5725 32.243 38.8211 29.2366 38.8266 26.1002C38.8309 24.5455 38.5268 23.0054 37.9319 21.5691C37.3369 20.1327 36.463 18.8286 35.3606 17.7323L35.3483 17.7365ZM26.9928 35.9328C25.2318 35.9336 23.5029 35.4604 21.9878 34.5629L21.6288 34.3484L17.9153 35.3263L18.9097 31.6953L18.6786 31.3239C17.6925 29.7572 17.1703 27.9432 17.1726 26.0919C17.1769 23.4841 18.2154 20.9844 20.0602 19.1411C21.905 17.2979 24.4056 16.2615 27.0134 16.2593C28.3057 16.2573 29.5855 16.5115 30.7789 17.0072C31.9723 17.503 33.0556 18.2305 33.966 19.1476C34.8845 20.0579 35.6129 21.1416 36.1087 22.3359C36.6046 23.5302 36.858 24.8112 36.8543 26.1043C36.851 28.7111 35.814 31.2101 33.9708 33.0534C32.1275 34.8967 29.6284 35.9336 27.0217 35.9369L26.9928 35.9328ZM32.3939 28.5717C32.691 28.7203 32.8891 28.7946 32.9633 28.9184C33.0446 29.3929 32.9843 29.8808 32.79 30.3212C32.5425 31.0144 31.3624 31.6457 30.793 31.7283C30.172 31.8331 29.5353 31.7936 28.9321 31.6127C28.3589 31.4352 27.7955 31.2273 27.2445 30.9897C24.2778 29.7106 22.3426 26.7232 22.1941 26.5252C22.0455 26.3271 20.9892 24.9242 20.9892 23.4677C20.9784 23.0058 21.0646 22.5468 21.2422 22.1203C21.4199 21.6939 21.6852 21.3095 22.0208 20.992C22.1195 20.8792 22.2405 20.788 22.3761 20.7241C22.5117 20.6602 22.659 20.625 22.8089 20.6206C23.0069 20.6206 23.2215 20.6206 23.3783 20.6206C23.5351 20.6206 23.7909 20.5505 24.0426 21.1282C24.2943 21.7059 24.8678 23.1913 24.9545 23.3233C25.0017 23.401 25.0286 23.4893 25.033 23.5801C25.0373 23.6709 25.0188 23.7614 24.9792 23.8432C24.9036 24.0199 24.8036 24.1851 24.6821 24.3342C24.5336 24.5075 24.3727 24.722 24.2407 24.8541C24.1086 24.9861 23.9353 25.1594 24.1086 25.4565C24.5535 26.2222 25.1097 26.9175 25.7591 27.5196C26.4611 28.1421 27.265 28.639 28.1357 28.9885C28.4328 29.137 28.6061 29.1123 28.7753 28.9142C28.9445 28.7162 29.518 28.0519 29.7119 27.7548C29.9059 27.4577 30.1245 27.5072 30.3804 27.6062C30.6362 27.7053 32.1051 28.4315 32.3981 28.5676" fill="#7637DE"/>
</svg>
